<?xml version="1.0"?><svg version="1.2" baseProfile="tiny-ps" viewBox="0 0 300 300" xmlns="http://www.w3.org/2000/svg" xmlns:xlink="http://www.w3.org/1999/xlink"><title>ElomeloGames</title><g><g fill="#fefefc" transform="matrix(.1 0 0 -.1 0 300)"><path d="M0 1500V0h3000v3000H0V1500z"/></g><g fill="#fecb08" transform="matrix(.1 0 0 -.1 0 300)"><path d="m1487 2528-16-13-21-90-21-90-44-87c-25-49-55-104-69-124l-24-36-5 9c-2 4-17 46-32 93s-33 91-41 99l-13 15-26-12-25-12v-12c0-7 19-68 42-135l43-122-21-22-22-21-25 55-25 54-37 41-37 41-56 28-57 28H775l-56-27c-31-14-74-42-96-61l-39-36-30-58-29-58v-190l23-47c13-26 36-61 52-78l28-30-37-9c-20-5-58-13-85-17l-49-7-19-19-20-20 5-16c3-10 8-24 12-34l6-16-20-7c-11-3-34-22-51-42-17-19-32-34-33-32l-22 44-20 40-32 3-32 3-11-20-11-21 26-53c14-30 29-78 35-107l10-53V901l21-11 21-12 23 6 22 6 7 192 7 193 10 37 9 37 38 31 37 30 39 11 39 11 34-7 33-6 35-31 35-30 16-54 15-53 2-183 2-183 25-3c14-1 32 2 40 8l15 9v183l1 183 14 44 14 43 12 5 13 5 73-47c40-26 101-71 134-99l61-51 8-132 7-132 14-12 15-12 24 11 25 12v82l1 83 34-40c87-101 204-305 261-455 41-110 63-129 111-95l21 15 7 62c9 83 30 176 61 269l25 77 49 30 49 30 30 43c17 23 31 50 31 60v18l-20 11-20 11-10-6-10-6v9c0 11 24 32 54 47l21 10 17 50 16 50 32 38c18 21 34 36 36 34 3-2-18-95-45-206l-49-201 5-20 5-19 20-7 20-6 19 18 18 19 62 265c33 146 67 274 74 286 16 25 168 131 242 168l53 26 6 24 6 24-11 21-11 20-43 11c-23 6-69 19-102 28l-60 18 3 20c2 10 26 117 53 238l51 218-16 16-15 16-25-12-24-11-6-18c-2-10-26-108-51-218-26-110-51-204-55-209l-8-8-17 10-18 9-1 69-2 69-23 52-23 53-40 36c-23 20-66 48-97 63l-56 26-94 1-94 1-18 34c-25 47-57 143-69 209l-10 55-17 13c-9 6-24 12-33 12s-24-6-33-12zm380-410 42-19 35-39 35-39 10-38c13-46 14-83 3-83-31 0-204 135-255 199l-29 36 24 6c33 9 87 0 135-23zm-902-5c43-22 84-62 107-106l19-39-4-12-5-12-43-13c-24-7-126-37-227-68l-183-55-7 7c-4 4-7 34-7 68l1 62 19 39c36 75 107 129 188 146l42 8 35-5c19-3 49-12 65-20zm55-303c-30-22-101-63-157-92l-102-51-30 12c-33 14-68 48-58 57 6 6 371 111 392 113 5 1-15-17-45-39zm1023 603c-3-10-11-31-18-48l-12-30-24-12c-13-6-32-14-42-17l-18-6 3-21 3-22 49-12 49-13 34-36c19-20 38-36 43-36 15 0 24 23 25 64l1 38 16 12c9 6 25 16 35 22l18 12-11 18-11 19-34 5-34 5-18 38-17 37h-31l-6-17zm327-910c-63-22-119-61-157-111l-33-43-16-56-16-57 5-64 5-64 29-56 28-56 49-37 49-37 57-16 56-16h100l55 16 54 16 35 26c47 35 57 47 88 112l26 55v80l-1 80-22 57-22 57-43 44-43 44-57 22-57 21h-62l-62-1-45-16zm149-64 50-10 40-30 40-29 23-42 22-43v-140l-18-35c-37-71-99-118-174-135l-33-7-51 13-51 12-42 42-42 42-13 38-12 38 4 71 5 71 21 42 22 42 32 25c30 22 82 43 115 45 7 1 35-4 62-10zM984 893c-3-10-10-28-15-41l-9-23-30-17c-16-9-30-22-30-27v-11l35-13 35-12 15-30 16-29h29v43l35 33 36 33-31 16-30 15-20 40c-23 45-28 48-36 23z"/></g><g fill="#c9c4ac" transform="matrix(.1 0 0 -.1 0 300)"><path d="M2058 2423c7-3 16-2 19 1 4 3-2 6-13 5l-19-1 13-5zm90-80c6-2 18-2 25 0l12 5h-50l13-5zm39-32-6-24 11 11c5 5 8 16 6 23l-4 13-7-23zm-1022-25-19-14 67-203c37-112 85-273 105-358l38-154 16-11 17-10 21 19 21 19-7 30c-28 139-185 658-206 684-13 16-30 15-53-2zm1096-5-18-18-7-39c-4-22-52-226-107-454l-99-414-28-30-27-31 23 19c12 11 22 16 22 13 0-4-22-97-49-207l-49-200 5-20 5-19 20-7 20-6 19 18 18 19 90 385c50 212 98 410 106 440s18 66 20 80c3 14 28 123 56 243l51 218-12 15c-17 19-36 18-59-5zm-1492-74c-99-28-169-85-216-177l-28-55v-190l24-49 24-49 39-38 39-38 52-18 52-18h85l85 1 51 17c29 10 72 31 97 48l44 29 27 38 26 38v54h-56l-38-46-39-47-51-22-51-23-40-3c-22-1-59-1-83 0l-43 1 6 10 6 10-15-6-14-5-29 15c-33 17-59 44-50 52 3 4 86 28 183 55l178 50 13-6 14-5-5 9-6 9 46 12c25 7 56 22 69 32l25 19v21c0 12 8 31 18 42l17 21-17-13-16-13-25 54-25 54-37 41-37 41-53 26-53 26-74 5-73 4-46-13zm196-94c43-22 84-62 107-106l19-39-4-12-5-12-43-13c-24-7-126-37-227-68l-183-55-7 7c-4 4-7 34-7 68l1 62 19 39c36 75 107 129 188 146l42 8 35-5c19-3 49-12 65-20zm695 97c0-4-11-11-24-14l-24-6-55-50-54-49-28-63-28-63-1-80-1-80 18-51 18-51 35-42 36-42 42-22 41-22h220l47 22 47 22 43 44 43 44 24 54c13 30 27 61 31 69 4 9 7 47 6 85l-2 70-23 52-23 53-40 36c-23 20-66 48-97 63l-56 26-97 1-98 1v-7zm207-92 42-19 35-39 35-39 11-41 11-42-5-51-6-51-26-55c-14-31-33-64-42-74-25-28-86-57-135-63l-42-6-45 12c-25 7-58 21-74 33l-29 20-25 56-26 56v120l18 52 17 52 37 41 37 42 50 13 50 13 35-5c19-3 54-14 77-25zm-137-22c0-2 8-10 18-17l17-14-14 18c-13 16-21 21-21 13zm65-66c10-11 20-20 23-20s-3 9-13 20-20 20-23 20 3-9 13-20zm647-340v-25l5 13c2 6 2 18 0 25l-5 12v-25zM421 1544l1-19 5 13c3 7 2 16-1 19-3 4-6-2-5-13zm500-25c-51-10-122-49-148-83l-19-24-27 33-26 33-44 21-43 21H495l-50-24-51-23-27-33c-15-18-29-31-30-29l-22 44-20 40-32 3-32 3-11-20-11-21 26-53c14-30 29-78 35-107l10-53V901l21-11 21-12 23 6 22 6 7 192 7 193 10 37 9 37 38 31 37 30 39 11 39 11 34-7 33-6 35-31 35-30 16-54 15-53 2-183 2-183 25-3c14-1 32 2 40 8l15 9v183l1 183 14 45 14 44 42 43 41 43h88l35-19 35-18 24-46 23-46 10-203 9-203 14-14 14-15 26 12 25 12v161l13-7 12-8-12 15-13 16-6 119c-7 143-15 175-53 235l-29 46-43 20c-24 12-62 23-84 26l-40 4-44-8zm570-8c-58-22-68-29-124-80l-39-36-26-50-27-50v-170l23-50 23-50 42-43 42-44 50-26 50-27h200l57 28 57 28 36 42c20 23 38 52 42 65l6 23-11 11c-6 6-22 12-36 13l-25 3-6-19c-11-32-56-79-97-100l-39-20-48-6-48-5-54 15-54 16-39 32-39 33-23 50c-13 28-24 59-24 70v19l43-6c23-3 119-13 212-22 94-9 186-19 205-23l36-8 29 16 30 16 15 45c8 24 19 50 23 57l8 12-12-2-12-3-7 30c-4 17-16 48-28 71l-21 40-41 38c-23 21-63 47-88 58l-47 21-80 4-80 3-54-19zm224-80 40-18 32-36 32-37 12-38c6-21 9-49 7-62l-3-25-65 3c-93 5-379 38-386 45s21 62 54 106l25 33 51 24 51 24h110l40-19zm655 72c-63-22-119-61-157-111l-33-43-16-56-16-57 5-64 5-64 29-56 28-56 49-37 49-37 57-16 56-16h100l55 16 54 16 35 26c47 35 57 47 88 112l26 55v80l-1 80-22 57-22 57-43 44-43 44-57 22-57 21h-62l-62-1-45-16zm149-64 50-10 40-30 40-29 23-42 22-43v-140l-18-35c-37-71-99-118-174-135l-33-7-51 13-51 12-42 42-42 42-13 38-12 38 4 71 5 71 21 42 22 42 32 25c30 22 82 43 115 45 7 1 35-4 62-10zm-1424-249c10-11 20-20 23-20s-3 9-13 20-20 20-23 20 3-9 13-20zm-46-427-14-18 18 14c9 7 17 15 17 17 0 8-8 3-21-13zm602-199 1-19 5 13c3 7 2 16-1 19-3 4-6-2-5-13z"/></g><g fill="#af900e" transform="matrix(.1 0 0 -.1 0 300)"><path d="m2270 2282-20-17-34-145c-31-131-90-376-237-977-27-112-49-214-49-227v-25l20-11 20-10 17 17 18 18 39 165c21 91 69 291 106 445 104 423 178 749 173 762-3 6-11 14-18 17l-14 5-21-17zm-1109-6-11-14 35-97c42-117 96-302 139-479l32-129 17-11 17-11 21 21 21 22-27 103c-39 156-91 329-142 477l-46 132h-45l-11-14zm-362-66c-133-23-238-124-269-259l-13-53 7-56c9-73 35-131 86-186l42-45 51-18 52-18h85l85 1 51 17c29 10 72 31 97 48l44 29 27 38 26 38v54h-56l-38-46-39-47-54-24-54-25h-67c-38 0-86 5-108 11l-40 11-24 25-24 25 10 9c5 5 110 37 234 71l225 61 25 18 25 18 3 27 3 26-25 56c-14 31-40 73-56 95l-31 38-62 30-62 30-55 5-55 4-46-8zm185-104 44-26 31-47 31-46v-44l-92-27c-51-14-156-46-233-70l-139-45-8 12c-4 7-8 37-8 67v55l24 51 23 50 44 37 43 38 46 14 45 15 53-4 53-5 43-25zm685 101c-51-14-89-39-136-89l-32-33-27-60-28-60v-80l-1-80 18-51 18-51 35-42 36-42 42-22 41-22h220l46 21 47 22 41 41 40 40 27 53 27 53 5 81 4 81-12 39c-29 86-94 151-190 188l-44 18-66 4-65 4-46-13zm214-95 52-29 30-42 30-43v-153l-28-60c-15-33-36-68-45-78-25-28-86-57-135-63l-42-6-45 12c-25 7-58 21-74 33l-29 20-25 56-26 56v120l17 50 17 51 32 38 31 38 41 19 41 19 53-4 53-5 52-29zm-962-593c-51-10-122-49-148-83l-19-24-27 33-26 33-44 21-43 21H496l-44-21c-24-12-60-38-79-58l-36-36-4 12c-2 7-14 27-27 45l-22 33-17 3-18 4-14-12c-22-18-19-42 12-102l28-53 5-215 5-214 27-15 26-15 16 13 16 13v293l10 68 10 68 15 23 15 23 51 28 51 27 48-4 47-5 30-21 31-22 17-37 18-37 9-81c5-44 7-136 6-204l-3-124 18-11 17-11 18 11 17 11 5 194 6 194 20 45 21 45 37 33 37 32h84l35-19 35-18 22-44 23-44 10-115c5-63 10-152 10-197s3-88 6-97l6-16h46l12 15 13 16-7 197-7 197-9 35c-5 19-23 56-39 81l-29 46-43 20c-24 12-62 23-84 26l-40 4-44-8zm570-8c-58-22-68-29-124-80l-39-36-26-50-27-50v-170l23-50 23-50 42-43 42-44 50-26 50-27h200l52 27c55 29 110 80 133 122l13 25-13 16c-7 8-20 15-29 15h-17l-37-45-38-45-40-21-40-20-48-6-48-5-54 15-54 16-39 32-39 33-23 50c-24 52-30 86-16 86 4 0 86-9 182-20s210-21 252-22l77-3 27 26 26 27 1 58v59l-26 51-25 50-42 38c-23 20-63 47-88 58l-47 21-80 4-80 3-54-19zm224-80 40-18 32-36 32-37 12-38c6-21 9-49 7-62l-3-25-65 3c-93 5-379 38-386 45s21 62 54 106l25 33 51 24 51 24h110l40-19zm678 75-53-13-39-26c-58-39-90-75-119-137l-26-55v-150l23-53 24-53 49-44 49-44 52-18 52-17h140l54 18 55 19 46 46 47 47 16 49 17 49v145l-21 57-22 57-39 43-38 42-50 21-49 21-58 5-58 4-52-13zm149-68 39-12 44-38 43-38 17-45 17-44-4-65-4-64-30-48-30-48-47-30-47-29-50-5-50-5-45 17-44 17-36 40c-20 22-41 52-47 67l-10 27-1 70v70l17 40c22 52 61 93 111 116l40 19h39c21 0 56-5 78-12z"/></g><g fill="#5f5841" transform="matrix(.1 0 0 -.1 0 300)"><path d="M2264 2275c-13-13-24-31-24-40 0-18-107-470-226-954-46-189-84-354-84-367v-23l19-10 18-10 18 13 18 13 104 439c57 241 130 549 162 684s56 250 54 257c-3 6-11 14-19 17l-15 6-25-25zm-1102 2-11-13 64-189c35-105 80-257 100-340 20-82 39-158 41-168l6-18 26 3 27 3-2 50-1 50-52 180c-28 99-71 242-96 318l-45 137h-47l-10-13zm-363-67c-133-23-238-124-269-259l-13-53 7-56c8-68 33-127 75-174l32-37 43-21c24-11 70-25 102-30l58-10 66 11 65 10 57 26 58 26 40 43 39 43 7 25 6 25-7 10c-3 6-15 11-25 11h-19l-36-45-37-45-52-25-52-25-50-6-50-6-58 12-58 12-31 28-32 29 10 10c6 5 95 33 198 61 104 28 213 60 243 71l54 20 10 19c6 10 10 27 10 37 0 27-46 120-81 164l-30 38-62 30-62 30-55 5-55 4-46-8zm185-104 44-26 31-47 31-46v-44l-92-27c-51-14-156-46-233-70l-139-45-8 12c-4 7-8 37-8 67v55l24 51 23 50 44 37 43 38 46 14 45 15 53-4 53-5 43-25zm678 96-53-19-37-30-37-30-33-54c-18-30-37-72-43-94l-11-40 4-86 4-85 30-55 31-54 47-32c26-18 67-38 89-44l42-11 76 4 77 5 55 27 55 27 36 39c19 22 47 63 62 92l27 53 5 76 4 76-12 39c-29 86-94 151-190 188l-44 18-66 4-65 5-53-19zm221-90 52-29 30-42 29-42 4-67 4-67-22-58-22-59-31-35-32-36-40-18-40-19h-110l-40 19-41 18-27 32-27 32-15 51c-19 65-19 99 0 171l15 58 23 34c28 41 61 68 102 83l30 12 53-5 53-4 52-29zm-359-596c-28-7-72-25-97-39l-45-27-36-41-35-42-18-51-17-51v-130l26-55c14-31 39-72 56-91l31-36 60-32 60-32 64-6 65-6 68 21 69 21 33 25c19 13 48 43 65 66l30 42-10 17c-6 9-18 18-28 19l-17 4-46-52-46-53-40-18-41-19h-112l-42 15c-23 8-57 26-76 40l-34 27-26 51c-14 28-25 61-25 74v23h23c12 0 101-9 197-20s205-20 241-20h66l21 23 22 23v51c0 61-14 105-51 159l-27 40-41 28c-52 36-109 55-179 61l-57 4-51-13zm206-90 45-22 29-42 29-41 5-57 5-57-74 7c-41 3-145 14-231 23l-158 16v14c0 23 30 76 64 111 76 82 183 100 286 48zm-1255 82c-39-14-84-45-113-77l-23-26-5 12c-3 7-15 27-28 45l-22 33-17 3-18 4-14-12c-22-18-19-42 12-102l28-53 5-215 5-214 27-15 26-15 16 13 16 13v293l10 68 10 68 15 23 15 23 51 28 51 27 48-4 47-5 30-21 31-22 17-37 18-37 9-81c5-44 7-136 6-204l-3-124 18-11 17-11 18 11 17 11 5 194 5 194 26 56 26 56 29 20c16 11 43 24 60 27l32 7 38-16c21-9 49-26 62-37l22-22 14-47 14-47 7-173c3-96 8-184 11-196l4-23h48l13 16 13 15-11 212-11 212-16 36c-8 20-28 51-43 69l-27 33-41 18-40 19H915l-45-21c-25-11-62-36-82-56l-36-36-34 38-33 38-40 18-40 19-50-1c-27 0-63-5-80-11zm1918-2-53-13-39-26c-58-39-90-75-119-137l-26-55v-150l23-53 24-53 49-44 49-44 52-18 52-17h140l54 18 55 19 46 46 47 47 16 49 17 49v145l-21 57-22 57-39 43-38 42-50 21-49 21-58 5-58 4-52-13zm149-68 39-12 44-38 43-38 17-45 17-44-4-65-4-64-30-48-30-48-47-30-47-29-50-5-50-5-45 17-44 17-36 40c-20 22-41 52-47 67l-10 27-1 70v70l17 40c22 52 61 93 111 116l40 19h39c21 0 56-5 78-12z"/></g><g fill="#040403" transform="matrix(.1 0 0 -.1 0 300)"><path d="m1164 2275-7-17 58-171c31-95 77-251 101-347s48-178 53-183l10-10 16 6c8 4 18 14 22 22l6 16-28 107c-32 125-123 428-157 522l-23 65-23 3-22 3-6-16zm1090-20c-7-19-14-39-14-44 0-11-191-803-266-1106l-45-180 6-22 5-23h40l14 23c7 12 28 85 46 162 17 77 72 307 120 510 49 204 105 441 125 528l37 158-6 15-5 14h-42l-15-35zm-1513-64c-97-36-164-106-196-202l-17-50v-57c0-77 16-130 55-188l32-47 54-31 55-30 87-4 88-4 69 21 70 21 49 38 48 39 19 35 19 35-6 17-6 16h-31l-58-59-58-59-54-16-54-16h-48c-27 0-69 5-93 11l-43 11-33 28-34 28 10 10c6 6 107 37 225 70s227 65 242 71l27 10 16 24 16 24-17 49c-19 57-37 88-78 132l-31 34-50 26-50 26-85 3-85 3-54-19zm225-72 43-20 32-36c17-20 38-52 46-71l14-35-13-12c-7-7-42-20-78-30-36-9-136-39-223-66l-158-50-9 6-10 6v134l19 40c10 22 33 56 52 74l34 34 50 23 50 24h109l42-21zm669 67-50-23-43-47-44-47-21-47-20-47-5-77-4-76 17-57 18-56 44-49 44-49 47-18 47-18h170l67 33 67 33 36 43c19 23 44 63 55 89l21 46 6 64 6 63-17 58-17 59-52 52-53 52-57 21-58 22h-154l-50-24zm231-60 50-23 36-43 37-42 10-49 11-48-10-53-10-53-28-55-27-54-43-30-43-30-70-4-70-4-45 17-44 17-25 32c-14 18-31 52-40 75l-15 44v103l15 51 15 50 31 42 30 43 42 19 42 19h100l51-24zM477 1504l-47-15-47-44c-26-25-47-44-48-42-2 1-12 21-23 43l-21 42-16 6-16 6-20-10-19-11v-15c0-8 12-37 26-65l25-51 11-91 10-92-5-115-5-115 9-22 9-23h58l6 16c3 9 6 91 6 182v167l10 39c11 51 38 86 86 113l39 23h102l34-23 34-22 25-50 25-50 4-197 3-197 12-4c6-2 21-1 34 4l22 8v357l16 54 16 54 37 38 37 37 27 6 27 7 36-6 35-7 38-34 38-34 12-41 12-41 6-177 6-177 8-22 9-23h40l11 24 11 23-11 201-10 201-15 36c-9 20-25 50-37 67l-22 30-51 24-51 24h-41c-22 0-64-7-93-16l-53-15-41-42-42-42-45 45-45 46-41 12c-52 15-87 14-147-4zm1033 7c-85-26-163-89-202-164l-23-42v-190l23-47 23-47 42-41c51-52 101-78 175-91l56-11 61 12 60 12 49 26 48 26 35 40 34 41-3 25-3 25-20 3-21 3-31-45-32-45-51-26-52-26h-126l-51 22-51 22-31 35c-38 43-59 90-59 133v31l33-6c57-11 398-46 444-46h44l26 26 26 26-5 62-5 62-21 39c-11 22-38 57-59 77l-38 37-55 25-55 26-80-1c-44 0-91-4-105-8zm206-75 50-23 31-38 31-37 11-45 12-45-6-19-6-19h-42c-23 0-123 9-221 20-99 11-184 20-189 20h-9l5 30c20 96 127 178 237 179l45 1 51-24zm638 53-51-19-39-34-40-34-29-53-30-54v-190l20-40c11-22 38-59 61-81l41-41 57-22 57-21h148l54 20 54 20 38 37 38 37 21 45 21 46v180l-34 69-33 68-45 31c-24 18-59 37-76 44l-32 11-75 1h-75l-51-20zm223-63 52-25 30-41 30-41 11-53 11-53-11-47c-14-66-32-96-78-138l-39-36-38-12-37-12-59 4-59 4-43 30-42 30-23 42-24 43-5 59-6 59 18 53c9 29 28 68 42 87l26 33 41 19 41 19h110l52-24z"/></g></g></svg>